<?xml version="1.0" standalone="no"?>
<!DOCTYPE svg PUBLIC "-//W3C//DTD SVG 20010904//EN"
 "http://www.w3.org/TR/2001/REC-SVG-20010904/DTD/svg10.dtd">
<svg version="1.0" xmlns="http://www.w3.org/2000/svg"
 width="700.000000pt" height="700.000000pt" viewBox="0 0 700.000000 700.000000"
 preserveAspectRatio="xMidYMid meet">
<metadata>
Created by potrace 1.11, written by Peter Selinger 2001-2013
</metadata>
<g transform="translate(0.000000,700.000000) scale(0.100000,-0.100000)"
fill="#000000" stroke="none">
<path d="M3237 6784 c-2 -2 -33 -7 -68 -10 -183 -16 -427 -64 -629 -125 -892
-267 -1639 -903 -2039 -1734 -147 -306 -267 -701 -296 -980 -3 -28 -7 -59 -10
-70 -24 -108 -24 -554 0 -745 16 -137 30 -218 51 -315 9 -38 17 -77 19 -85 25
-122 115 -386 183 -540 172 -392 389 -708 692 -1010 141 -141 154 -154 279
-254 312 -252 746 -480 1116 -586 144 -42 274 -72 400 -95 68 -12 229 -32 330
-40 59 -5 422 -5 480 -1 72 6 171 17 196 21 13 2 71 11 129 20 296 48 620 152
910 293 658 320 1202 863 1528 1527 107 219 224 555 258 743 2 12 6 33 8 47 3
14 7 33 10 43 8 27 34 218 43 312 15 166 8 551 -12 685 -2 17 -6 48 -9 70 -33
248 -120 561 -223 805 -172 403 -414 759 -726 1066 -190 187 -293 271 -506
412 -127 84 -432 248 -546 294 -218 87 -470 164 -629 192 -16 3 -52 10 -80 15
-59 12 -104 18 -178 27 -29 3 -64 8 -78 11 -29 7 -597 13 -603 7z m519 -248
c54 -4 106 -9 114 -11 8 -2 38 -6 65 -10 73 -8 211 -34 280 -52 33 -8 67 -16
75 -18 33 -6 107 -28 189 -55 692 -227 1296 -705 1671 -1323 218 -359 350
-727 415 -1157 3 -23 7 -58 21 -200 7 -70 6 -379 -1 -445 -3 -27 -7 -75 -10
-105 -68 -673 -376 -1314 -875 -1819 -64 -65 -163 -155 -261 -236 -127 -106
-391 -271 -574 -360 -288 -138 -637 -246 -910 -280 -33 -5 -69 -9 -80 -11
-196 -25 -580 -24 -750 1 -16 3 -47 7 -67 10 -385 52 -794 198 -1148 408 -46
27 -244 158 -250 166 -3 3 -34 28 -70 55 -151 115 -333 293 -476 466 -277 334
-480 728 -593 1151 -16 63 -33 128 -35 144 -3 17 -10 55 -16 85 -35 180 -45
306 -45 545 0 203 9 338 30 465 84 511 272 960 566 1349 127 169 131 174 299
341 249 249 493 426 799 579 290 146 659 260 956 296 28 4 61 8 75 11 14 2 77
7 140 10 63 4 116 8 118 9 4 4 249 -3 348 -9z"/>
<path d="M2855 6110 c-2 -8 -6 -64 -10 -125 -3 -60 -7 -130 -10 -155 -3 -42
-9 -124 -21 -320 -8 -141 -12 -182 -19 -188 -3 -4 -229 -8 -502 -9 -273 -2
-497 -4 -498 -5 -3 -3 -7 -60 -21 -273 -4 -55 -8 -133 -8 -173 l-1 -73 210 0
c238 0 289 -10 351 -70 36 -35 66 -100 67 -146 0 -27 -10 -208 -18 -303 -2
-25 -7 -90 -10 -145 -3 -55 -8 -125 -10 -155 -2 -30 -7 -104 -10 -164 -4 -60
-8 -118 -10 -128 -2 -10 2 -18 8 -18 9 0 9 -2 1 -8 -7 -4 -14 -57 -18 -127 -4
-66 -9 -140 -11 -165 -2 -25 -7 -90 -10 -145 -3 -55 -8 -122 -10 -150 -2 -27
-7 -95 -10 -150 -3 -55 -8 -127 -10 -160 -7 -89 -14 -198 -20 -305 -12 -197
-67 -246 -280 -250 -66 -1 -158 -2 -205 -3 l-85 -2 -33 -140 c-18 -77 -35
-151 -38 -165 -3 -14 -12 -52 -21 -85 -8 -33 -17 -71 -19 -85 -3 -14 -9 -41
-14 -60 -6 -19 -10 -38 -10 -41 0 -3 226 -5 503 -5 l502 1 -1 -30 c-1 -29 -11
-181 -19 -300 -7 -98 -14 -213 -20 -330 -3 -60 -8 -120 -11 -133 l-4 -22 250
0 c137 1 250 4 251 8 0 4 2 14 3 22 2 8 6 62 10 120 8 136 15 249 21 330 3 36
8 114 11 175 4 60 8 116 9 125 2 8 4 18 4 23 1 4 90 6 199 5 l197 -3 -1 -25
c-2 -32 -13 -217 -19 -295 -2 -33 -7 -98 -10 -145 -13 -209 -16 -248 -20 -290
l-4 -46 247 2 c136 1 249 2 253 3 3 0 5 11 5 24 1 25 13 222 19 307 4 53 9
118 21 305 10 151 11 165 15 169 5 5 79 14 184 21 44 4 87 8 95 10 8 2 40 7
70 10 217 24 480 99 653 186 382 193 592 583 582 1079 -3 148 -21 232 -75 345
-63 130 -170 234 -318 309 -59 30 -170 71 -219 81 -39 8 -51 23 -26 32 80 30
235 159 298 248 108 151 156 313 155 525 0 161 -15 230 -76 357 -83 174 -208
278 -464 386 -108 46 -455 115 -606 120 -12 0 -12 22 1 200 3 42 7 112 10 155
3 42 7 106 10 142 2 36 7 112 10 170 4 57 7 107 7 110 2 29 -5 30 -246 30
-135 0 -247 -3 -249 -7 -3 -5 -8 -60 -11 -123 -4 -63 -9 -142 -11 -175 -2 -33
-7 -94 -9 -135 -3 -41 -8 -115 -12 -165 -4 -49 -7 -102 -9 -117 -5 -75 29 -68
-330 -70 -79 0 -76 -2 -71 45 3 23 8 83 11 132 6 103 13 199 19 300 15 217 19
287 17 301 -1 7 -81 10 -246 10 -209 -1 -246 -3 -250 -16z m940 -1354 c119
-12 147 -16 230 -37 234 -60 356 -168 383 -342 34 -216 -73 -395 -296 -494
-62 -28 -215 -69 -290 -78 -26 -4 -58 -8 -71 -10 -68 -11 -415 -22 -524 -16
-15 1 -16 9 -13 54 3 28 8 97 11 152 3 55 8 120 10 145 2 25 6 97 10 160 4 63
8 131 10 150 2 19 7 87 10 150 4 63 8 126 9 140 2 19 9 26 31 30 42 7 408 5
490 -4z m65 -1479 c14 -3 50 -8 80 -11 101 -12 264 -58 347 -98 181 -88 264
-219 257 -408 -7 -205 -135 -355 -384 -450 -60 -24 -230 -65 -300 -74 -25 -3
-58 -8 -75 -11 -86 -13 -163 -17 -408 -20 l-269 -4 7 107 c7 123 13 208 20
307 3 39 7 111 10 160 3 50 8 117 10 150 2 33 7 103 10 155 11 171 13 189 19
199 6 10 629 9 676 -2z"/>
</g>
</svg>
