<svg xmlns="http://www.w3.org/2000/svg" width="400" height="400" viewBox="0 0 210 297"><path d="M210.527 103.22c-1.062-24.943-29.455-33.2-66.018-35.447l3.025-34.615-28.486.108-2.945 33.703c-7.49.029-15.154.166-22.769.307l2.97-33.926-28.47.105-3.037 34.605c-6.175.116-12.24.224-18.146.249l.007-.109-39.29.136-1.96 22.504s21.063-.375 20.688-.087c11.538-.04 14.86 4.9 15.58 9.172l-3.446 39.434c.796 0 1.832.021 2.998.136-.95.005-1.964.003-3.01.014l-4.837 55.243c-.741 2.688-3.25 6.979-11.312 7.02.344.236-20.708.072-20.708.072l-7.86 25.184 37.072-.139c6.898-.02 13.678.042 20.34.049l-3.05 35.01 28.456-.103 3.028-34.64c7.802.09 15.36.109 22.742.076l-3.027 34.48 28.487-.108 3.064-34.947c48.07-2.21 82.37-11.26 89.44-44.54 5.703-26.798-10.287-38.686-37.05-43.414 17.059-6.282 28.343-17.28 27.525-35.533zm-46.4 75.008c-2.271 26.162-62.577 23.412-81.884 23.497l4.063-46.386c19.311-.068 80.21-4.4 77.822 22.889zm-7.526-65.395c-2.09 23.803-52.359 21.213-68.44 21.274l3.68-42.07c16.081-.06 66.927-4.03 64.76 20.796z" class="fill-dark" style="fill:#4a4a4a;fill-opacity:1"/></svg>