<svg xmlns="http://www.w3.org/2000/svg" width="400" height="400" viewBox="0 0 210 297" style="enable-background:new 0 0 382.7 382.7"><path class="fill-dark" d="M30.76 193.461c22.924 19.875 92.886 21.31 116.907 12.883 8.817-3.093 11.019-12.046 11.02-18.115-.001-4.166-1.77-7.438-5.306-9.819-3.733-2.38-13.23-8.421-24.232-10.206-55.8-8.926-94.458-20.074-109.587-28.167C.7 129.921-2.345 123.315-2.345 105.701c0-17.613 8.17-32.375 26.64-42.967 18.468-10.592 45.288-15.888 80.458-15.888 33.597 0 80.85 5.498 103.887 22.451L170.23 95.2c-21.663-11.274-37.774-12.293-64.299-12.293-16.7 0-25.394 1.487-32.468 4.462-7.073 2.857-10.61 6.606-10.61 11.247 0 4.165 3.242 7.617 9.726 10.354 6.484 2.856 23.43 7.14 57.225 12.853 37.92 6.426 63.659 14.221 77.216 23.385 13.36 9.164 20.04 21.362 20.04 36.595 0 18.327-10.413 33.442-31.24 45.343-20.63 11.9-46.025 21.15-82.57 21.15-47.04 0-109.831-10.302-127.155-29.343" style="stroke-width:8.75814;fill:#4a4a4a;fill-opacity:1"/><path class="fill-dark" d="M83.371 15.082v47.193h36.152V15.082zm0 221.31v42.45h36.152v-42.45z" style="stroke-width:8.75814;fill:#4a4a4a;fill-opacity:1"/></svg>