<svg xmlns="http://www.w3.org/2000/svg" width="400" height="400" viewBox="0 0 210 297" style="enable-background:new 0 0 382.7 382.7"><path style="fill:#4a4a4a;fill-opacity:1;stroke:none;stroke-width:.670609;stroke-linecap:butt;stroke-linejoin:miter;stroke-miterlimit:4;stroke-dasharray:none;stroke-opacity:1" d="M40.86 142.055C20.264 155.73.437 155.442-20.354 183.152c-17.525 50.757-2.865 76.543.545 109.747l243.053-.284c7.712-25.915 23.62-53.471.82-113.178-19.448-33.334-9.81-37.605-71.989-39.04-17.07 18.47-12.571 90.01-43.925 92.759l-14.624-48.447c11.912.063 15.723-19.285 15.723-19.285-2.543-24.17-30.622-16.88-40.313.69-4.486 10.01 3.678 14.277 10.962 18.943l-22.61 43.162c-14.781-19.567-17.486-51.015-16.428-86.164z"/><path class="fill-primary" d="M148.574 57.432c-.535-13.154-14.846-17.51-33.275-18.694l1.525-18.255-14.358.057-1.484 17.774c-3.775.015-7.638.088-11.476.162l1.497-17.892-14.35.056-1.53 18.25c-3.113.061-6.17.118-9.147.13l.003-.056-19.803.071-.987 11.868s10.616-.198 10.427-.046c5.815-.021 7.49 2.585 7.852 4.837L61.73 76.491c.402 0 .924.01 1.512.071-.479.002-.99.002-1.517.008l-2.438 29.134c-.374 1.417-1.639 3.68-5.702 3.701.173.125-10.437.039-10.437.039l-3.962 13.281 18.685-.073c3.477-.011 6.894.022 10.252.025l-1.537 18.463 14.342-.054 1.526-18.268c3.933.048 7.742.057 11.463.04l-1.526 18.184 14.359-.057 1.544-18.43c24.229-1.166 41.517-5.938 45.08-23.489 2.875-14.133-5.185-20.402-18.674-22.895 8.598-3.313 14.286-9.114 13.873-18.74zM125.188 96.99c-1.145 13.797-31.541 12.347-41.273 12.392l2.048-24.463c9.734-.036 40.428-2.32 39.225 12.07zm-3.794-34.487c-1.054 12.553-26.39 11.187-34.496 11.219l1.855-22.187c8.106-.032 33.733-2.125 32.64 10.968z" style="fill:#ed9913;fill-opacity:1;stroke-width:.60588;stroke-miterlimit:4;stroke-dasharray:none"/><ellipse style="fill:none;fill-opacity:1;stroke:#13d4ed;stroke-width:6.25482;stroke-miterlimit:4;stroke-dasharray:none;stroke-opacity:1" cx="95.36" cy="80.271" rx="92.075" ry="71.947"/></svg>