<svg xmlns="http://www.w3.org/2000/svg" width="200" height="200" viewBox="0 0 52.917 52.917"><g style="fill:#4a4a4a;fill-opacity:1"><path class="fill-dark" d="M105.947 101.13a6.224 9.982 0 0 1-6.224 9.982 6.224 9.982 0 0 1-6.224-9.982 6.224 9.982 0 0 1 6.224-9.982 6.224 9.982 0 0 1 6.224 9.982zM96.438 124.171h5.518a2.64 2.64 0 0 1 2.646 2.646v47.628a2.64 2.64 0 0 1-2.646 2.646h-5.518a2.64 2.64 0 0 1-2.646-2.646v-47.628a2.64 2.64 0 0 1 2.646-2.646z" style="fill:#4a4a4a;fill-opacity:1" transform="matrix(.79163 0 0 .44146 -52.078 -33.73)"/></g></svg>