<svg xmlns="http://www.w3.org/2000/svg" width="200" height="200" viewBox="0 0 105 148.5"><path d="M52.396 29.763c4.595-.154 8.243-4.325 8.379-9.577.135-5.716-3.92-10.35-8.92-10.196-4.594.155-8.243 4.326-8.378 9.578-.135 5.715 3.92 10.35 8.92 10.195zM115.1 89.082h-2.432L95.505 51.08c2.432-.31 4.865-1.39 7.027-2.472 3.243-1.699 3.919-6.642 1.486-9.577l-.135-.155c-1.486-1.699-3.784-2.317-5.81-1.236-1.893.927-4.595 2.009-7.163 2.009-7.568 0-10.946-9.887-38.784-9.887S20.909 39.65 13.342 39.65c-2.703 0-5.27-.927-7.162-2.009-2.028-.926-4.325-.463-5.811 1.236l-.135.155c-2.433 2.935-1.757 7.724 1.486 9.577 2.162 1.236 4.595 2.163 7.027 2.472l-17.162 38h-2.433c-1.08 0-1.892 1.082-1.756 2.318 1.486 9.886 12.432 17.456 25.81 17.456 13.38 0 24.325-7.57 25.812-17.456.135-1.236-.676-2.317-1.757-2.317h-2.433L17.666 51.235c11.216-1.081 17.162-7.569 25.811-7.569v75.075c-4.73 0-8.649 4.48-8.649 9.886h-9.594c-3.784 0-7.703 4.48-7.703 9.887h69.19c0-5.407-3.92-9.887-9.595-9.887h-7.703c0-5.406-3.919-9.886-8.648-9.886V43.666c8.648 0 14.594 6.488 25.81 7.57L69.424 89.081h-2.432c-1.081 0-1.892 1.081-1.757 2.317 1.487 9.886 12.433 17.456 25.811 17.456 13.379 0 24.325-7.57 25.811-17.456.135-1.236-.675-2.317-1.757-2.317zm-88.92 0H.235l12.973-27.806zm51.893 0 12.973-27.806 12.973 27.806z" style="fill:#ed9913;fill-opacity:1;stroke-width:.144464;stroke-miterlimit:4;stroke-dasharray:none"/></svg>