<svg xmlns="http://www.w3.org/2000/svg" width="400" height="400" viewBox="0 0 210 297" style="enable-background:new 0 0 382.7 382.7"><path class="fill-black" d="M72.632 121.27h69.605c1.437 0 2.594.992 2.594 2.225v164.458c0 1.233-1.157 2.226-2.594 2.226H72.632c-1.436 0-2.593-.993-2.593-2.226V123.495c0-1.233 1.157-2.226 2.593-2.226z" style="stroke-width:1.12292;fill:#4a4a4a;fill-opacity:1"/><path class="fill-black" d="m-15.54 160.443 189.78-122.8c1.127-.728 2.671-.508 3.462.496l9.18 11.645c.79 1.004.52 2.398-.607 3.128l-189.781 122.8c-1.127.728-2.671.508-3.462-.496l-9.18-11.645c-.79-1.003-.52-2.398.608-3.128z" style="stroke-width:1.12219;fill:#4a4a4a;fill-opacity:1"/><path class="fill-black" d="M193.994 196.76 58.36 24.685c-.777-.986-.511-2.356.596-3.073l12.854-8.317c1.107-.716 2.624-.5 3.401.486l135.634 172.077c.778.986.512 2.357-.596 3.073l-12.853 8.317c-1.107.716-2.625.5-3.402-.486z" style="stroke-width:1.12219;fill:#4a4a4a;fill-opacity:1"/></svg>